<mxfile host="app.diagrams.net" agent="Mozilla/5.0 (X11; Linux x86_64; rv:139.0) Gecko/20100101 Firefox/139.0" version="27.2.0">
  <diagram name="Page-1" id="j4DYxFuXmD3RVADBqIxC">
    <mxGraphModel dx="2101" dy="1397" grid="1" gridSize="10" guides="1" tooltips="1" connect="1" arrows="1" fold="1" page="1" pageScale="1" pageWidth="850" pageHeight="1100" math="0" shadow="0">
      <root>
        <mxCell id="0" />
        <mxCell id="1" parent="0" />
        <mxCell id="-6Yn25LQZmcoXKjFqF1X-66" value="" style="rounded=1;whiteSpace=wrap;html=1;fillColor=light-dark(#1a5fb4, #718769);fontColor=#ffffff;strokeColor=#3A5431;glass=0;shadow=1;arcSize=10;movable=0;resizable=0;rotatable=0;deletable=0;editable=0;locked=1;connectable=0;" vertex="1" parent="1">
          <mxGeometry x="230" y="520" width="690" height="240" as="geometry" />
        </mxCell>
        <mxCell id="-6Yn25LQZmcoXKjFqF1X-46" value="" style="rounded=1;whiteSpace=wrap;html=1;fillColor=light-dark(#009900,#718769);fontColor=#ffffff;strokeColor=#3A5431;glass=0;shadow=1;arcSize=10;" vertex="1" parent="1">
          <mxGeometry x="40" y="840" width="880" height="240" as="geometry" />
        </mxCell>
        <mxCell id="-6Yn25LQZmcoXKjFqF1X-57" style="edgeStyle=orthogonalEdgeStyle;rounded=0;orthogonalLoop=1;jettySize=auto;html=1;exitX=1;exitY=0.5;exitDx=0;exitDy=0;entryX=0;entryY=0.5;entryDx=0;entryDy=0;strokeWidth=14;strokeColor=#E6FFCC;" edge="1" parent="1" source="-6Yn25LQZmcoXKjFqF1X-45" target="-6Yn25LQZmcoXKjFqF1X-51">
          <mxGeometry relative="1" as="geometry" />
        </mxCell>
        <mxCell id="-6Yn25LQZmcoXKjFqF1X-58" value="&lt;span style=&quot;color: rgb(0, 0, 0);&quot;&gt;ASLi Generate&lt;/span&gt;" style="edgeLabel;html=1;align=center;verticalAlign=middle;resizable=0;points=[];labelBackgroundColor=none;fontColor=#FFFFFF;" vertex="1" connectable="0" parent="-6Yn25LQZmcoXKjFqF1X-57">
          <mxGeometry x="-0.0028" y="-1" relative="1" as="geometry">
            <mxPoint y="-1" as="offset" />
          </mxGeometry>
        </mxCell>
        <mxCell id="-6Yn25LQZmcoXKjFqF1X-45" value="" style="whiteSpace=wrap;html=1;dashed=1;rounded=1;fillColor=none;strokeColor=#E6FFCC;strokeWidth=5;arcSize=7;dashPattern=1 1;gradientColor=#97d077;movable=1;resizable=1;rotatable=1;deletable=1;editable=1;locked=0;connectable=1;" vertex="1" parent="1">
          <mxGeometry x="60" y="860" width="290" height="200" as="geometry" />
        </mxCell>
        <mxCell id="-6Yn25LQZmcoXKjFqF1X-7" value="&lt;div&gt;handwritten&lt;/div&gt;&lt;div&gt;asl&lt;/div&gt;&lt;div&gt;code&lt;/div&gt;" style="shape=note;whiteSpace=wrap;html=1;backgroundOutline=1;darkOpacity=0.05;fillColor=#d5e8d4;strokeColor=#82b366;" vertex="1" parent="1">
          <mxGeometry x="100" y="890" width="80" height="100" as="geometry" />
        </mxCell>
        <mxCell id="-6Yn25LQZmcoXKjFqF1X-5" value="" style="group" vertex="1" connectable="0" parent="1">
          <mxGeometry x="230" y="890" width="80" height="150" as="geometry" />
        </mxCell>
        <mxCell id="-6Yn25LQZmcoXKjFqF1X-2" value="" style="shape=note;whiteSpace=wrap;html=1;backgroundOutline=1;darkOpacity=0.05;movable=1;resizable=1;rotatable=1;deletable=1;editable=1;locked=0;connectable=1;" vertex="1" parent="-6Yn25LQZmcoXKjFqF1X-5">
          <mxGeometry y="16.666666666666668" width="64" height="83.33333333333334" as="geometry" />
        </mxCell>
        <mxCell id="-6Yn25LQZmcoXKjFqF1X-3" value="" style="shape=note;whiteSpace=wrap;html=1;backgroundOutline=1;darkOpacity=0.05;movable=1;resizable=1;rotatable=1;deletable=1;editable=1;locked=0;connectable=1;" vertex="1" parent="-6Yn25LQZmcoXKjFqF1X-5">
          <mxGeometry x="8" y="8.333333333333334" width="64" height="83.33333333333334" as="geometry" />
        </mxCell>
        <mxCell id="-6Yn25LQZmcoXKjFqF1X-4" value="&lt;div&gt;codegen&lt;/div&gt;&lt;div&gt;asl&lt;/div&gt;" style="shape=note;whiteSpace=wrap;html=1;backgroundOutline=1;darkOpacity=0.05;movable=1;resizable=1;rotatable=1;deletable=1;editable=1;locked=0;connectable=1;" vertex="1" parent="-6Yn25LQZmcoXKjFqF1X-5">
          <mxGeometry x="16" width="64" height="83.33333333333334" as="geometry" />
        </mxCell>
        <mxCell id="-6Yn25LQZmcoXKjFqF1X-47" value="&lt;font style=&quot;font-size: 19px;&quot;&gt;&lt;b style=&quot;color: rgb(255, 255, 255);&quot;&gt;ASL Source Code&lt;/b&gt;&lt;/font&gt;" style="text;html=1;align=center;verticalAlign=middle;whiteSpace=wrap;rounded=0;" vertex="1" parent="1">
          <mxGeometry x="125" y="1000" width="160" height="50" as="geometry" />
        </mxCell>
        <mxCell id="-6Yn25LQZmcoXKjFqF1X-51" value="" style="whiteSpace=wrap;html=1;dashed=1;rounded=1;fillColor=none;strokeColor=#E6FFCC;strokeWidth=5;arcSize=7;dashPattern=1 1;gradientColor=#97d077;movable=1;resizable=1;rotatable=1;deletable=1;editable=1;locked=0;connectable=1;" vertex="1" parent="1">
          <mxGeometry x="430" y="860" width="190" height="200" as="geometry" />
        </mxCell>
        <mxCell id="-6Yn25LQZmcoXKjFqF1X-52" value="" style="group" vertex="1" connectable="0" parent="1">
          <mxGeometry x="486.25" y="890" width="103.75" height="160" as="geometry" />
        </mxCell>
        <mxCell id="-6Yn25LQZmcoXKjFqF1X-53" value="" style="shape=note;whiteSpace=wrap;html=1;backgroundOutline=1;darkOpacity=0.05;movable=1;resizable=1;rotatable=1;deletable=1;editable=1;locked=0;connectable=1;" vertex="1" parent="-6Yn25LQZmcoXKjFqF1X-52">
          <mxGeometry y="16.666666666666668" width="64" height="83.33333333333334" as="geometry" />
        </mxCell>
        <mxCell id="-6Yn25LQZmcoXKjFqF1X-54" value="" style="shape=note;whiteSpace=wrap;html=1;backgroundOutline=1;darkOpacity=0.05;movable=1;resizable=1;rotatable=1;deletable=1;editable=1;locked=0;connectable=1;" vertex="1" parent="-6Yn25LQZmcoXKjFqF1X-52">
          <mxGeometry x="8" y="8.333333333333334" width="64" height="83.33333333333334" as="geometry" />
        </mxCell>
        <mxCell id="-6Yn25LQZmcoXKjFqF1X-55" value="&lt;div&gt;codegen&lt;/div&gt;&lt;div&gt;C&lt;/div&gt;" style="shape=note;whiteSpace=wrap;html=1;backgroundOutline=1;darkOpacity=0.05;movable=1;resizable=1;rotatable=1;deletable=1;editable=1;locked=0;connectable=1;" vertex="1" parent="-6Yn25LQZmcoXKjFqF1X-52">
          <mxGeometry x="16" width="64" height="83.33333333333334" as="geometry" />
        </mxCell>
        <mxCell id="-6Yn25LQZmcoXKjFqF1X-56" value="&lt;b&gt;&lt;font style=&quot;font-size: 16px; color: rgb(255, 255, 255);&quot;&gt;C Source Code&lt;/font&gt;&lt;/b&gt;" style="text;html=1;align=center;verticalAlign=middle;whiteSpace=wrap;rounded=0;" vertex="1" parent="1">
          <mxGeometry x="466.25" y="1010" width="127.5" height="40" as="geometry" />
        </mxCell>
        <mxCell id="-6Yn25LQZmcoXKjFqF1X-61" value="" style="html=1;shape=mxgraph.basic.isocube;isoAngle=15;fillColor=#d5e8d4;strokeColor=#82b366;" vertex="1" parent="1">
          <mxGeometry x="720" y="880" width="120" height="130" as="geometry" />
        </mxCell>
        <mxCell id="-6Yn25LQZmcoXKjFqF1X-62" value="&lt;font style=&quot;font-size: 16px; color: rgb(255, 255, 255);&quot;&gt;&lt;b&gt;Archive Library&lt;/b&gt;&lt;/font&gt;" style="text;html=1;align=center;verticalAlign=middle;whiteSpace=wrap;rounded=0;" vertex="1" parent="1">
          <mxGeometry x="710" y="1030" width="140" height="30" as="geometry" />
        </mxCell>
        <mxCell id="-6Yn25LQZmcoXKjFqF1X-64" value="" style="curved=1;endArrow=classic;html=1;rounded=0;exitX=1;exitY=0.5;exitDx=0;exitDy=0;entryX=0;entryY=0;entryDx=0;entryDy=28.80945108961392;entryPerimeter=0;strokeColor=#E6FFCC;strokeWidth=3;" edge="1" parent="1" source="-6Yn25LQZmcoXKjFqF1X-51" target="-6Yn25LQZmcoXKjFqF1X-61">
          <mxGeometry width="50" height="50" relative="1" as="geometry">
            <mxPoint x="640" y="965" as="sourcePoint" />
            <mxPoint x="690" y="915" as="targetPoint" />
            <Array as="points">
              <mxPoint x="690" y="965" />
              <mxPoint x="640" y="915" />
            </Array>
          </mxGeometry>
        </mxCell>
        <mxCell id="-6Yn25LQZmcoXKjFqF1X-65" value="&lt;span style=&quot;color: rgb(255, 255, 255);&quot;&gt;Compile&lt;/span&gt;" style="edgeLabel;html=1;align=center;verticalAlign=middle;resizable=0;points=[];labelBackgroundColor=none;fontColor=#000000;fontSize=13;" vertex="1" connectable="0" parent="-6Yn25LQZmcoXKjFqF1X-64">
          <mxGeometry x="0.0722" relative="1" as="geometry">
            <mxPoint as="offset" />
          </mxGeometry>
        </mxCell>
        <mxCell id="-6Yn25LQZmcoXKjFqF1X-71" value="" style="rounded=1;whiteSpace=wrap;html=1;dashed=1;fillColor=none;strokeColor=light-dark(#99c1f1, #ededed);strokeWidth=4;" vertex="1" parent="1">
          <mxGeometry x="250" y="540" width="370" height="200" as="geometry" />
        </mxCell>
        <mxCell id="-6Yn25LQZmcoXKjFqF1X-29" value="FFI.rs" style="shape=note;whiteSpace=wrap;html=1;backgroundOutline=1;darkOpacity=0.05;movable=1;resizable=1;rotatable=1;deletable=1;editable=1;locked=0;connectable=1;fillColor=#dae8fc;strokeColor=#6c8ebf;" vertex="1" parent="1">
          <mxGeometry x="494" y="580" width="72" height="100.00000000000001" as="geometry" />
        </mxCell>
        <mxCell id="-6Yn25LQZmcoXKjFqF1X-28" value="Simulator.rs" style="shape=note;whiteSpace=wrap;html=1;backgroundOutline=1;darkOpacity=0.05;movable=1;resizable=1;rotatable=1;deletable=1;editable=1;locked=0;connectable=1;fillColor=#dae8fc;strokeColor=#6c8ebf;" vertex="1" parent="1">
          <mxGeometry x="310" y="580" width="72" height="100.00000000000001" as="geometry" />
        </mxCell>
        <mxCell id="-6Yn25LQZmcoXKjFqF1X-72" value="&lt;font style=&quot;font-size: 16px; color: rgb(255, 255, 255);&quot;&gt;&lt;b&gt;Rust Code&lt;/b&gt;&lt;/font&gt;" style="text;html=1;align=center;verticalAlign=middle;whiteSpace=wrap;rounded=0;" vertex="1" parent="1">
          <mxGeometry x="360" y="690" width="150" height="40" as="geometry" />
        </mxCell>
        <mxCell id="-6Yn25LQZmcoXKjFqF1X-74" value="" style="shape=flexArrow;endArrow=classic;html=1;rounded=0;width=40.90909090909091;endSize=29.20909090909091;fillColor=#cce5ff;strokeColor=#36393d;entryX=0.742;entryY=0.8;entryDx=0;entryDy=0;entryPerimeter=0;shadow=1;startSize=16;sourcePerimeterSpacing=7;targetPerimeterSpacing=6;endWidth=85.53719008264463;" edge="1" parent="1" target="-6Yn25LQZmcoXKjFqF1X-71">
          <mxGeometry width="50" height="50" relative="1" as="geometry">
            <mxPoint x="524.5500000000001" y="850" as="sourcePoint" />
            <mxPoint x="524.6800000000001" y="800" as="targetPoint" />
          </mxGeometry>
        </mxCell>
        <mxCell id="-6Yn25LQZmcoXKjFqF1X-76" value="" style="html=1;whiteSpace=wrap;shape=isoCube2;backgroundOutline=1;isoAngle=15;fillColor=#dae8fc;strokeColor=#6c8ebf;" vertex="1" parent="1">
          <mxGeometry x="720" y="560" width="125" height="130" as="geometry" />
        </mxCell>
        <mxCell id="-6Yn25LQZmcoXKjFqF1X-77" value="&lt;b style=&quot;color: rgb(255, 255, 255);&quot;&gt;&lt;font style=&quot;font-size: 17px;&quot;&gt;Simulator&lt;/font&gt;&lt;/b&gt;" style="text;html=1;align=center;verticalAlign=middle;whiteSpace=wrap;rounded=0;" vertex="1" parent="1">
          <mxGeometry x="736.25" y="710" width="92.5" height="30" as="geometry" />
        </mxCell>
        <mxCell id="-6Yn25LQZmcoXKjFqF1X-79" value="" style="curved=1;endArrow=classic;html=1;rounded=0;entryX=0;entryY=0;entryDx=125;entryDy=99.9901551149855;entryPerimeter=0;exitX=0;exitY=0;exitDx=120;exitDy=28.80945108961392;exitPerimeter=0;strokeWidth=2;sketch=1;curveFitting=1;jiggle=2;" edge="1" parent="1" source="-6Yn25LQZmcoXKjFqF1X-61" target="-6Yn25LQZmcoXKjFqF1X-76">
          <mxGeometry width="50" height="50" relative="1" as="geometry">
            <mxPoint x="828.75" y="810" as="sourcePoint" />
            <mxPoint x="878.75" y="760" as="targetPoint" />
            <Array as="points">
              <mxPoint x="900" y="860" />
              <mxPoint x="890" y="680" />
            </Array>
          </mxGeometry>
        </mxCell>
        <mxCell id="-6Yn25LQZmcoXKjFqF1X-80" value="" style="curved=1;endArrow=classic;html=1;rounded=0;exitX=1;exitY=0.5;exitDx=0;exitDy=0;entryX=0;entryY=0;entryDx=0;entryDy=30.0098448850145;entryPerimeter=0;fillColor=#dae8fc;strokeColor=#B3E0FF;strokeWidth=3;" edge="1" parent="1" source="-6Yn25LQZmcoXKjFqF1X-71" target="-6Yn25LQZmcoXKjFqF1X-76">
          <mxGeometry width="50" height="50" relative="1" as="geometry">
            <mxPoint x="640" y="650" as="sourcePoint" />
            <mxPoint x="690" y="600" as="targetPoint" />
            <Array as="points">
              <mxPoint x="690" y="650" />
              <mxPoint x="650" y="580" />
            </Array>
          </mxGeometry>
        </mxCell>
        <mxCell id="-6Yn25LQZmcoXKjFqF1X-83" value="" style="rounded=1;whiteSpace=wrap;html=1;fillColor=light-dark(#e5a50a, #36210a);strokeColor=#d79b00;glass=0;shadow=1;arcSize=10;movable=1;resizable=1;rotatable=1;deletable=1;editable=1;locked=0;connectable=1;" vertex="1" parent="1">
          <mxGeometry x="40" y="200" width="880" height="240" as="geometry" />
        </mxCell>
        <mxCell id="-6Yn25LQZmcoXKjFqF1X-85" value="" style="rounded=1;whiteSpace=wrap;html=1;fillColor=none;dashed=1;dashPattern=1 2;strokeWidth=5;strokeColor=light-dark(#FFD91F,#5E3206);" vertex="1" parent="1">
          <mxGeometry x="60" y="220" width="260" height="200" as="geometry" />
        </mxCell>
        <mxCell id="-6Yn25LQZmcoXKjFqF1X-86" value="&lt;font style=&quot;font-size: 16px;&quot;&gt;Linker Script&lt;/font&gt;" style="shape=note;whiteSpace=wrap;html=1;backgroundOutline=1;darkOpacity=0.05;movable=1;resizable=1;rotatable=1;deletable=1;editable=1;locked=0;connectable=1;fillColor=#ffe6cc;strokeColor=#d79b00;" vertex="1" parent="1">
          <mxGeometry x="100" y="250" width="72" height="100.00000000000001" as="geometry" />
        </mxCell>
        <mxCell id="-6Yn25LQZmcoXKjFqF1X-87" value="&lt;font style=&quot;font-size: 16px;&quot;&gt;Source Code&lt;/font&gt;" style="shape=note;whiteSpace=wrap;html=1;backgroundOutline=1;darkOpacity=0.05;movable=1;resizable=1;rotatable=1;deletable=1;editable=1;locked=0;connectable=1;fillColor=#ffe6cc;strokeColor=#d79b00;" vertex="1" parent="1">
          <mxGeometry x="220" y="250" width="72" height="100.00000000000001" as="geometry" />
        </mxCell>
        <mxCell id="-6Yn25LQZmcoXKjFqF1X-88" value="&lt;b&gt;&lt;span style=&quot;color: light-dark(rgb(255, 255, 255), rgb(237, 237, 237));&quot;&gt;&lt;font style=&quot;font-size: 17px;&quot;&gt;Application Code&lt;/font&gt;&lt;/span&gt;&lt;/b&gt;" style="text;html=1;align=center;verticalAlign=middle;whiteSpace=wrap;rounded=0;" vertex="1" parent="1">
          <mxGeometry x="80" y="370" width="220" height="30" as="geometry" />
        </mxCell>
        <mxCell id="-6Yn25LQZmcoXKjFqF1X-91" value="" style="html=1;whiteSpace=wrap;shape=isoCube2;backgroundOutline=1;isoAngle=15;fillColor=#ffe6cc;strokeColor=#d79b00;" vertex="1" parent="1">
          <mxGeometry x="460" y="235" width="116.25" height="130" as="geometry" />
        </mxCell>
        <mxCell id="-6Yn25LQZmcoXKjFqF1X-92" value="&lt;b&gt;&lt;span style=&quot;color: light-dark(rgb(255, 255, 255), rgb(237, 237, 237));&quot;&gt;&lt;font style=&quot;font-size: 17px;&quot;&gt;RISC-V GCC Compiler&lt;/font&gt;&lt;/span&gt;&lt;/b&gt;" style="text;html=1;align=center;verticalAlign=middle;whiteSpace=wrap;rounded=0;" vertex="1" parent="1">
          <mxGeometry x="420.63" y="380" width="195" height="40" as="geometry" />
        </mxCell>
        <mxCell id="-6Yn25LQZmcoXKjFqF1X-93" value="" style="shape=flexArrow;endArrow=classic;html=1;rounded=0;width=26.666666666666668;endSize=16;fillColor=#ffe6cc;strokeColor=#d79b00;shadow=0;startSize=16;sourcePerimeterSpacing=7;targetPerimeterSpacing=6;endWidth=34.44444444444444;" edge="1" parent="1">
          <mxGeometry width="50" height="50" relative="1" as="geometry">
            <mxPoint x="336.25" y="310" as="sourcePoint" />
            <mxPoint x="440" y="310.42" as="targetPoint" />
          </mxGeometry>
        </mxCell>
        <mxCell id="-6Yn25LQZmcoXKjFqF1X-94" value="&lt;b&gt;&lt;span style=&quot;color: light-dark(rgb(255, 255, 255), rgb(237, 237, 237));&quot;&gt;&lt;font style=&quot;font-size: 17px;&quot;&gt;RISC-V Program&lt;/font&gt;&lt;/span&gt;&lt;/b&gt;" style="text;html=1;align=center;verticalAlign=middle;whiteSpace=wrap;rounded=0;" vertex="1" parent="1">
          <mxGeometry x="694.63" y="380" width="195" height="40" as="geometry" />
        </mxCell>
        <mxCell id="-6Yn25LQZmcoXKjFqF1X-95" value="" style="html=1;whiteSpace=wrap;shape=isoCube2;backgroundOutline=1;isoAngle=15;fillColor=#ffe6cc;strokeColor=#d79b00;" vertex="1" parent="1">
          <mxGeometry x="734" y="240" width="116.25" height="130" as="geometry" />
        </mxCell>
        <mxCell id="-6Yn25LQZmcoXKjFqF1X-96" value="" style="shape=flexArrow;endArrow=classic;html=1;rounded=0;width=26.666666666666668;endSize=16;fillColor=#ffe6cc;strokeColor=#d79b00;shadow=0;startSize=16;sourcePerimeterSpacing=7;targetPerimeterSpacing=6;endWidth=34.44444444444444;" edge="1" parent="1">
          <mxGeometry width="50" height="50" relative="1" as="geometry">
            <mxPoint x="606.25" y="310" as="sourcePoint" />
            <mxPoint x="710" y="310.42" as="targetPoint" />
          </mxGeometry>
        </mxCell>
        <mxCell id="-6Yn25LQZmcoXKjFqF1X-97" value="" style="rounded=1;whiteSpace=wrap;html=1;fillColor=#dae8fc;strokeColor=#6c8ebf;glass=0;shadow=1;arcSize=6;movable=1;resizable=1;rotatable=1;deletable=1;editable=1;locked=0;connectable=1;" vertex="1" parent="1">
          <mxGeometry x="1020" y="290" width="620" height="700" as="geometry" />
        </mxCell>
        <mxCell id="-6Yn25LQZmcoXKjFqF1X-100" value="" style="rounded=1;whiteSpace=wrap;html=1;fillColor=none;dashed=1;dashPattern=1 2;strokeWidth=5;strokeColor=light-dark(#007FFF,#5E3206);" vertex="1" parent="1">
          <mxGeometry x="1040" y="320" width="570" height="280" as="geometry" />
        </mxCell>
        <mxCell id="-6Yn25LQZmcoXKjFqF1X-98" value="&lt;font style=&quot;font-size: 19px;&quot;&gt;Architecture States Dump&lt;/font&gt;" style="shape=note;whiteSpace=wrap;html=1;backgroundOutline=1;darkOpacity=0.05;movable=1;resizable=1;rotatable=1;deletable=1;editable=1;locked=0;connectable=1;fillColor=#1ba1e2;strokeColor=#006EAF;fontColor=#ffffff;" vertex="1" parent="1">
          <mxGeometry x="1145" y="360" width="120" height="150" as="geometry" />
        </mxCell>
        <mxCell id="-6Yn25LQZmcoXKjFqF1X-99" value="&lt;font style=&quot;font-size: 18px;&quot;&gt;&lt;b&gt;Spike&lt;/b&gt;&lt;/font&gt;" style="html=1;whiteSpace=wrap;shape=isoCube2;backgroundOutline=1;isoAngle=15;fillColor=#1ba1e2;strokeColor=#006EAF;fontColor=#ffffff;" vertex="1" parent="1">
          <mxGeometry x="1400" y="380" width="116.25" height="130" as="geometry" />
        </mxCell>
        <mxCell id="-6Yn25LQZmcoXKjFqF1X-102" value="&lt;font style=&quot;color: rgb(0, 0, 0); font-size: 20px;&quot;&gt;&lt;b&gt;Differential Tests with Spike&lt;/b&gt;&lt;/font&gt;" style="text;html=1;align=center;verticalAlign=middle;whiteSpace=wrap;rounded=0;" vertex="1" parent="1">
          <mxGeometry x="1080" y="540" width="500" height="40" as="geometry" />
        </mxCell>
        <mxCell id="-6Yn25LQZmcoXKjFqF1X-104" value="" style="curved=1;endArrow=classic;html=1;rounded=0;entryX=0;entryY=0.5;entryDx=0;entryDy=0;entryPerimeter=0;exitX=1;exitY=0.5;exitDx=0;exitDy=0;exitPerimeter=0;strokeWidth=3;sketch=1;curveFitting=1;jiggle=2;" edge="1" parent="1" source="-6Yn25LQZmcoXKjFqF1X-76" target="-6Yn25LQZmcoXKjFqF1X-98">
          <mxGeometry width="50" height="50" relative="1" as="geometry">
            <mxPoint x="950" y="380" as="sourcePoint" />
            <mxPoint x="1000" y="330" as="targetPoint" />
            <Array as="points">
              <mxPoint x="1000" y="610" />
              <mxPoint x="950" y="330" />
            </Array>
          </mxGeometry>
        </mxCell>
        <mxCell id="-6Yn25LQZmcoXKjFqF1X-106" style="edgeStyle=orthogonalEdgeStyle;rounded=0;orthogonalLoop=1;jettySize=auto;html=1;exitX=1;exitY=0.5;exitDx=0;exitDy=0;exitPerimeter=0;entryX=0;entryY=0.5;entryDx=0;entryDy=0;entryPerimeter=0;strokeColor=default;curved=1;strokeWidth=3;sketch=1;curveFitting=1;jiggle=2;" edge="1" parent="1" source="-6Yn25LQZmcoXKjFqF1X-95" target="-6Yn25LQZmcoXKjFqF1X-98">
          <mxGeometry relative="1" as="geometry">
            <Array as="points">
              <mxPoint x="850" y="290" />
              <mxPoint x="960" y="290" />
              <mxPoint x="960" y="370" />
              <mxPoint x="1145" y="370" />
            </Array>
          </mxGeometry>
        </mxCell>
        <mxCell id="-6Yn25LQZmcoXKjFqF1X-107" value="" style="shape=flexArrow;endArrow=classic;startArrow=classic;html=1;rounded=0;fillColor=#1ba1e2;strokeColor=#006EAF;" edge="1" parent="1">
          <mxGeometry width="100" height="100" relative="1" as="geometry">
            <mxPoint x="1277.5" y="450" as="sourcePoint" />
            <mxPoint x="1382.5" y="450" as="targetPoint" />
          </mxGeometry>
        </mxCell>
        <mxCell id="-6Yn25LQZmcoXKjFqF1X-108" value="" style="rounded=1;whiteSpace=wrap;html=1;fillColor=none;dashed=1;dashPattern=1 2;strokeWidth=5;strokeColor=light-dark(#007FFF,#5E3206);" vertex="1" parent="1">
          <mxGeometry x="1045" y="680" width="570" height="280" as="geometry" />
        </mxCell>
        <mxCell id="-6Yn25LQZmcoXKjFqF1X-110" value="&lt;font style=&quot;font-size: 18px;&quot;&gt;&lt;b&gt;TestBench&lt;/b&gt;&lt;/font&gt;" style="html=1;whiteSpace=wrap;shape=isoCube2;backgroundOutline=1;isoAngle=15;fillColor=#1ba1e2;strokeColor=#006EAF;fontColor=#ffffff;" vertex="1" parent="1">
          <mxGeometry x="1146.88" y="730" width="116.25" height="130" as="geometry" />
        </mxCell>
        <mxCell id="-6Yn25LQZmcoXKjFqF1X-111" value="&lt;font style=&quot;color: rgb(0, 0, 0); font-size: 20px;&quot;&gt;&lt;b&gt;Co-simulation with RTL TestBench&lt;/b&gt;&lt;/font&gt;" style="text;html=1;align=center;verticalAlign=middle;whiteSpace=wrap;rounded=0;" vertex="1" parent="1">
          <mxGeometry x="1085" y="900" width="500" height="40" as="geometry" />
        </mxCell>
        <mxCell id="-6Yn25LQZmcoXKjFqF1X-113" value="" style="group" vertex="1" connectable="0" parent="1">
          <mxGeometry x="1400" y="740" width="110" height="170" as="geometry" />
        </mxCell>
        <mxCell id="-6Yn25LQZmcoXKjFqF1X-114" value="" style="shape=note;whiteSpace=wrap;html=1;backgroundOutline=1;darkOpacity=0.05;movable=1;resizable=1;rotatable=1;deletable=1;editable=1;locked=0;connectable=1;" vertex="1" parent="-6Yn25LQZmcoXKjFqF1X-113">
          <mxGeometry y="18.88888888888889" width="88" height="94.44444444444446" as="geometry" />
        </mxCell>
        <mxCell id="-6Yn25LQZmcoXKjFqF1X-115" value="" style="shape=note;whiteSpace=wrap;html=1;backgroundOutline=1;darkOpacity=0.05;movable=1;resizable=1;rotatable=1;deletable=1;editable=1;locked=0;connectable=1;" vertex="1" parent="-6Yn25LQZmcoXKjFqF1X-113">
          <mxGeometry x="11" y="9.444444444444445" width="88" height="94.44444444444446" as="geometry" />
        </mxCell>
        <mxCell id="-6Yn25LQZmcoXKjFqF1X-116" value="Verilogs" style="shape=note;whiteSpace=wrap;html=1;backgroundOutline=1;darkOpacity=0.05;movable=1;resizable=1;rotatable=1;deletable=1;editable=1;locked=0;connectable=1;" vertex="1" parent="-6Yn25LQZmcoXKjFqF1X-113">
          <mxGeometry x="22" width="88" height="94.44444444444446" as="geometry" />
        </mxCell>
        <mxCell id="-6Yn25LQZmcoXKjFqF1X-117" style="edgeStyle=orthogonalEdgeStyle;rounded=0;orthogonalLoop=1;jettySize=auto;html=1;exitX=0;exitY=0.5;exitDx=0;exitDy=0;exitPerimeter=0;entryX=0;entryY=0;entryDx=116.25;entryDy=27.909155743063486;entryPerimeter=0;" edge="1" parent="1" source="-6Yn25LQZmcoXKjFqF1X-114" target="-6Yn25LQZmcoXKjFqF1X-110">
          <mxGeometry relative="1" as="geometry" />
        </mxCell>
        <mxCell id="-6Yn25LQZmcoXKjFqF1X-118" value="" style="curved=1;endArrow=classic;html=1;rounded=0;exitX=1;exitY=0.5;exitDx=0;exitDy=0;exitPerimeter=0;entryX=0;entryY=0;entryDx=0;entryDy=27.909155743063486;entryPerimeter=0;strokeWidth=3;sketch=1;curveFitting=1;jiggle=2;" edge="1" parent="1" source="-6Yn25LQZmcoXKjFqF1X-76" target="-6Yn25LQZmcoXKjFqF1X-110">
          <mxGeometry width="50" height="50" relative="1" as="geometry">
            <mxPoint x="1010" y="570" as="sourcePoint" />
            <mxPoint x="1060" y="520" as="targetPoint" />
            <Array as="points">
              <mxPoint x="1060" y="570" />
              <mxPoint x="890" y="780" />
            </Array>
          </mxGeometry>
        </mxCell>
      </root>
    </mxGraphModel>
  </diagram>
</mxfile>
